<svg width="25" height="25" viewBox="0 0 25 25" fill="none" xmlns="http://www.w3.org/2000/svg">
<path fill-rule="evenodd" clip-rule="evenodd" d="M15.0249 12.5L24.4764 3.04855C25.1745 2.35036 25.1745 1.22183 24.4764 0.523642C23.7782 -0.174547 22.6496 -0.174547 21.9514 0.523642L12.5 9.97509L3.04855 0.523642C2.35036 -0.174547 1.22183 -0.174547 0.523642 0.523642C-0.174547 1.22183 -0.174547 2.35036 0.523642 3.04855L9.97509 12.5L0.523642 21.9514C-0.174547 22.6496 -0.174547 23.7782 0.523642 24.4764C0.871844 24.8246 1.32897 24.9996 1.7861 24.9996C2.24322 24.9996 2.70035 24.8246 3.04855 24.4764L12.5 15.0249L21.9514 24.4764C22.2996 24.8246 22.7568 24.9996 23.2139 24.9996C23.671 24.9996 24.1282 24.8246 24.4764 24.4764C25.1745 23.7782 25.1745 22.6496 24.4764 21.9514L15.0249 12.5Z" fill="black"/>
</svg>
