<svg width="24" height="23" viewBox="0 0 24 23" fill="none" xmlns="http://www.w3.org/2000/svg">
<mask id="path-1-outside-1" maskUnits="userSpaceOnUse" x="0" y="0" width="21" height="23" fill="black">
<rect fill="white" width="21" height="23"/>
<path d="M19.0559 18.9246C17.5767 20.3931 15.6921 21.3931 13.6404 21.7982C11.5887 22.2034 9.46199 21.9955 7.52931 21.2007C5.59663 20.406 3.94474 19.0602 2.78253 17.3335C1.62033 15.6068 1 13.5767 1 11.5C1 9.4233 1.62033 7.39323 2.78253 5.66651C3.94474 3.9398 5.59663 2.59399 7.52931 1.79927C9.46199 1.00455 11.5887 0.79661 13.6404 1.20175C15.6921 1.6069 17.5767 2.60693 19.0559 4.07538L11.5769 11.5L19.0559 18.9246Z"/>
</mask>
<path d="M19.0559 18.9246C17.5767 20.3931 15.6921 21.3931 13.6404 21.7982C11.5887 22.2034 9.46199 21.9955 7.52931 21.2007C5.59663 20.406 3.94474 19.0602 2.78253 17.3335C1.62033 15.6068 1 13.5767 1 11.5C1 9.4233 1.62033 7.39323 2.78253 5.66651C3.94474 3.9398 5.59663 2.59399 7.52931 1.79927C9.46199 1.00455 11.5887 0.79661 13.6404 1.20175C15.6921 1.6069 17.5767 2.60693 19.0559 4.07538L11.5769 11.5L19.0559 18.9246Z" fill="white"/>
<path d="M19.0559 18.9246C17.5767 20.3931 15.6921 21.3931 13.6404 21.7982C11.5887 22.2034 9.46199 21.9955 7.52931 21.2007C5.59663 20.406 3.94474 19.0602 2.78253 17.3335C1.62033 15.6068 1 13.5767 1 11.5C1 9.4233 1.62033 7.39323 2.78253 5.66651C3.94474 3.9398 5.59663 2.59399 7.52931 1.79927C9.46199 1.00455 11.5887 0.79661 13.6404 1.20175C15.6921 1.6069 17.5767 2.60693 19.0559 4.07538L11.5769 11.5L19.0559 18.9246Z" stroke="#4F4F4F" stroke-width="2" mask="url(#path-1-outside-1)"/>
<mask id="path-2-outside-2" maskUnits="userSpaceOnUse" x="10.8462" y="2" width="14" height="19" fill="black">
<rect fill="white" x="10.8462" y="2" width="14" height="19"/>
<path d="M19.9021 18.9246C20.8843 17.9496 21.6634 16.7921 22.1949 15.5182C22.7265 14.2443 23 12.8789 23 11.5C23 10.1211 22.7265 8.75574 22.1949 7.48182C21.6634 6.20791 20.8843 5.05039 19.9021 4.07538L12.4231 11.5L19.9021 18.9246Z"/>
</mask>
<path d="M19.9021 18.9246C20.8843 17.9496 21.6634 16.7921 22.1949 15.5182C22.7265 14.2443 23 12.8789 23 11.5C23 10.1211 22.7265 8.75574 22.1949 7.48182C21.6634 6.20791 20.8843 5.05039 19.9021 4.07538L12.4231 11.5L19.9021 18.9246Z" fill="white"/>
<path d="M19.9021 18.9246C20.8843 17.9496 21.6634 16.7921 22.1949 15.5182C22.7265 14.2443 23 12.8789 23 11.5C23 10.1211 22.7265 8.75574 22.1949 7.48182C21.6634 6.20791 20.8843 5.05039 19.9021 4.07538L12.4231 11.5L19.9021 18.9246Z" stroke="white" stroke-width="2" mask="url(#path-2-outside-2)"/>
<path d="M4.59787 14.14C5.36587 13.476 5.96987 12.932 6.40988 12.508C6.85787 12.076 7.22987 11.628 7.52587 11.164C7.82187 10.7 7.96987 10.236 7.96987 9.772C7.96987 9.292 7.85388 8.916 7.62188 8.644C7.39787 8.372 7.04187 8.236 6.55387 8.236C6.08187 8.236 5.71387 8.388 5.44987 8.692C5.19387 8.988 5.05787 9.388 5.04187 9.892H3.72187C3.74587 8.98 4.01787 8.284 4.53787 7.804C5.06587 7.316 5.73388 7.072 6.54188 7.072C7.41388 7.072 8.09388 7.312 8.58187 7.792C9.07788 8.272 9.32588 8.912 9.32588 9.712C9.32588 10.288 9.17788 10.844 8.88188 11.38C8.59388 11.908 8.24588 12.384 7.83787 12.808C7.43788 13.224 6.92588 13.708 6.30187 14.26L5.76187 14.74H9.56587V15.88H3.73387V14.884L4.59787 14.14ZM15.2077 8.428H11.1877V10.816C11.3557 10.592 11.6037 10.404 11.9317 10.252C12.2677 10.1 12.6237 10.024 12.9997 10.024C13.6717 10.024 14.2157 10.168 14.6317 10.456C15.0557 10.744 15.3557 11.108 15.5317 11.548C15.7157 11.988 15.8077 12.452 15.8077 12.94C15.8077 13.532 15.6917 14.06 15.4597 14.524C15.2357 14.98 14.8957 15.34 14.4397 15.604C13.9917 15.868 13.4397 16 12.7837 16C11.9117 16 11.2117 15.784 10.6837 15.352C10.1557 14.92 9.83966 14.348 9.73566 13.636H11.0677C11.1557 14.012 11.3517 14.312 11.6557 14.536C11.9597 14.752 12.3397 14.86 12.7957 14.86C13.3637 14.86 13.7877 14.688 14.0677 14.344C14.3557 14 14.4997 13.544 14.4997 12.976C14.4997 12.4 14.3557 11.96 14.0677 11.656C13.7797 11.344 13.3557 11.188 12.7957 11.188C12.4037 11.188 12.0717 11.288 11.7997 11.488C11.5357 11.68 11.3437 11.944 11.2237 12.28H9.92766V7.228H15.2077V8.428ZM22.6557 12.244H20.2317V14.728H18.9597V12.244H16.5357V11.092H18.9597V8.608H20.2317V11.092H22.6557V12.244Z" fill="#4F4F4F"/>
</svg>
